# xmcd
#
# Track frame offsets:
# 150
# 16068
# 28044
# 49002
# 63458
# 77601
# 90567
# 107516
# 127639
# 149601
# 168636
# 183988
# 202292
# 223850
# 245881
# 266881
# 287294
#
# Disc length: 4049 seconds
#
# Revision: 0
# Processed by: cddbd v1.4PL0 Copyright (c) Steve Scherf et al.
# Submitted via: Axialis_AX_CDPlayer 2.6
#
DISCID=f70fcf11
DTITLE=Martin McBride - Live at the Fox Theater
DYEAR=1900
DGENRE=
TTITLE0=It's My Time
TTITLE1=My Baby Loves Me
TTITLE2=Safe In The Arms Of Love
TTITLE3=Wrong Again
TTITLE4=I Can See Clearly Now
TTITLE5=I Love You
TTITLE6=I Ain't Going Nowhere
TTITLE7=This Uncivil War
TTITLE8=Valentine
TTITLE9=Blue Bayou
TTITLE10=There You Are
TTITLE11=Wild Angels
TTITLE12=Love's The Only House
TTITLE13=Whatever You Say
TTITLE14=A Broken wing
TTITLE15=Independence Day
TTITLE16=Happy Girl
EXTD=
EXTT0=
EXTT1=
EXTT2=
EXTT3=
EXTT4=
EXTT5=
EXTT6=
EXTT7=
EXTT8=
EXTT9=
EXTT10=
EXTT11=
EXTT12=
EXTT13=
EXTT14=
EXTT15=
EXTT16=
PLAYORDER=
